<svg xmlns="http://www.w3.org/2000/svg" width="1200" height="720" viewBox="0 0 1200 720" role="img" aria-labelledby="title desc">
  <title id="title">TurboQuant Project Cover</title>
  <desc id="desc">Tech dashboard inspired cover with bars and compression percentages.</desc>
  <defs>
    <linearGradient id="bg" x1="0" y1="0" x2="0" y2="1">
      <stop offset="0%" stop-color="#0a0f1d"/>
      <stop offset="100%" stop-color="#131f3a"/>
    </linearGradient>
    <linearGradient id="bar" x1="0" y1="0" x2="1" y2="0">
      <stop offset="0%" stop-color="#4FA3FF"/>
      <stop offset="100%" stop-color="#7fd2ff"/>
    </linearGradient>
  </defs>
  <rect width="1200" height="720" fill="url(#bg)"/>
  <g opacity="0.25" stroke="#7ab6ff" stroke-width="1">
    <path d="M0 120 H1200"/><path d="M0 240 H1200"/><path d="M0 360 H1200"/><path d="M0 480 H1200"/><path d="M0 600 H1200"/>
  </g>
  <rect x="130" y="190" width="340" height="22" fill="#25365e" rx="10"/>
  <rect x="130" y="190" width="300" height="22" fill="url(#bar)" rx="10"/>
  <rect x="130" y="250" width="430" height="22" fill="#25365e" rx="10"/>
  <rect x="130" y="250" width="365" height="22" fill="url(#bar)" rx="10"/>
  <rect x="130" y="310" width="520" height="22" fill="#25365e" rx="10"/>
  <rect x="130" y="310" width="425" height="22" fill="url(#bar)" rx="10"/>
  <text x="680" y="208" fill="#b8dcff" font-size="26" font-family="Poppins,Segoe UI,sans-serif">KV Compression 3.3x</text>
  <text x="680" y="268" fill="#b8dcff" font-size="26" font-family="Poppins,Segoe UI,sans-serif">Perplexity +6.1%</text>
  <text x="680" y="328" fill="#b8dcff" font-size="26" font-family="Poppins,Segoe UI,sans-serif">GPT-2 Medium Benchmarks</text>
  <rect x="90" y="520" width="1020" height="140" rx="24" fill="rgba(0,0,0,0.38)"/>
  <text x="130" y="592" fill="#ffffff" font-size="64" font-family="Poppins,Segoe UI,sans-serif" font-weight="700">TurboQuant KV Cache Demo</text>
  <text x="130" y="635" fill="#d9ecff" font-size="30" font-family="Poppins,Segoe UI,sans-serif">GPT-2 Medium Quantization Research</text>
</svg>
