<svg xmlns="http://www.w3.org/2000/svg">
  <symbol id="icon-codechef" viewBox="0 0 64 64">
    <path fill="currentColor" d="M47.6 24.2c1.2-1.8 1.9-3.8 1.9-6 0-5.9-4.6-10.6-10.6-10.6-2.3 0-4.5.8-6.3 2.1C30.7 8.4 28.4 7.6 26 7.6c-5.9 0-10.6 4.7-10.6 10.6 0 2.1.6 4.2 1.9 6-3.2 1.1-5.5 4.2-5.5 7.8 0 4.6 3.7 8.3 8.3 8.3h24.7c4.6 0 8.3-3.7 8.3-8.3 0-3.6-2.3-6.7-5.5-7.8Zm-5.6 19.3H22c-2.5 0-4.5 2-4.5 4.5v4.2h29v-4.2c0-2.5-2-4.5-4.5-4.5ZM16.9 52.2v2.8c0 1.7 1.3 3 3 3h24.2c1.7 0 3-1.3 3-3v-2.8H16.9Zm4.4-8.7c1.3 1.7 3.4 2.7 5.6 2.7 1.9 0 3.7-.7 5.1-2 1.4 1.3 3.2 2 5.1 2 2.2 0 4.3-1 5.6-2.7v-1.4H21.3v1.4Z"/>
  </symbol>
</svg>
